<?xml version="1.0" standalone="no"?>
<!DOCTYPE svg PUBLIC "-//W3C//DTD SVG 20010904//EN"
 "http://www.w3.org/TR/2001/REC-SVG-20010904/DTD/svg10.dtd">
<svg version="1.0" xmlns="http://www.w3.org/2000/svg"
 width="1920.000000pt" height="1041.000000pt" viewBox="0 0 1920.000000 1041.000000"
 preserveAspectRatio="xMidYMid meet">

<g transform="translate(0.000000,1041.000000) scale(0.100000,-0.100000)"
fill="#000000" stroke="none">
<path d="M6980 6949 l0 -551 -22 6 c-149 41 -470 51 -668 22 -641 -97 -1135
-489 -1365 -1084 -124 -322 -157 -762 -84 -1125 145 -721 692 -1201 1514
-1329 183 -28 546 -30 765 -4 355 42 655 109 913 204 l97 36 0 2188 0 2188
-575 0 -575 0 0 -551z m-128 -1443 c40 -8 85 -19 101 -25 l27 -11 -2 -807 -3
-807 -70 -19 c-101 -28 -301 -27 -406 1 -325 88 -515 350 -536 742 -26 489
194 840 582 925 80 18 217 18 307 1z"/>
<path d="M12240 5315 l0 -2184 29 -16 c54 -28 325 -113 441 -139 321 -71 572
-99 890 -100 263 0 387 12 585 59 444 105 809 336 1049 664 217 297 326 665
326 1103 0 344 -56 602 -189 866 -315 626 -1050 971 -1825 856 -55 -8 -110
-17 -123 -20 l-23 -6 0 551 0 551 -580 0 -580 0 0 -2185z m1655 155 c201 -64
343 -184 430 -365 62 -129 76 -195 82 -375 6 -180 -9 -290 -57 -421 -87 -239
-278 -413 -516 -470 -115 -27 -273 -28 -364 -2 l-65 18 -3 802 -2 802 52 15
c29 8 62 17 73 20 11 3 83 3 160 2 111 -3 155 -8 210 -26z"/>
<path d="M935 5152 l-931 -2217 743 -3 c409 -1 1077 -1 1486 0 l743 3 -181
500 -180 500 -458 3 c-251 1 -457 5 -457 8 0 18 764 1923 770 1919 3 -2 267
-663 586 -1469 l579 -1466 687 0 688 0 -19 48 c-21 52 -1771 4269 -1803 4345
l-20 47 -652 0 -651 0 -930 -2218z"/>
<path d="M10035 6443 c-537 -36 -1002 -280 -1301 -682 -75 -100 -191 -327
-233 -456 -155 -470 -124 -1050 79 -1482 219 -466 652 -797 1188 -908 433 -90
906 -34 1271 149 516 260 835 732 906 1342 72 616 -116 1201 -505 1568 -356
336 -865 506 -1405 469z m278 -968 c191 -40 363 -199 440 -405 51 -136 62
-210 61 -420 -1 -178 -3 -204 -27 -294 -42 -156 -96 -256 -192 -352 -121 -121
-245 -174 -410 -174 -244 1 -439 130 -545 362 -93 206 -114 533 -50 783 94
366 390 571 723 500z"/>
<path d="M17355 6439 c-199 -19 -412 -78 -590 -164 -442 -212 -747 -600 -874
-1110 -68 -276 -76 -618 -20 -898 135 -675 627 -1161 1344 -1330 205 -48 329
-61 595 -61 323 0 549 31 810 109 92 28 274 99 308 121 l22 14 0 435 c0 239
-3 435 -6 435 -3 0 -56 -20 -117 -44 -690 -272 -1274 -260 -1598 33 -92 82
-179 217 -213 329 l-7 22 1079 0 1080 0 6 23 c14 51 28 362 22 492 -17 378
-107 672 -287 935 -319 465 -918 719 -1554 659z m333 -874 c134 -32 265 -127
337 -245 33 -54 76 -171 89 -237 l6 -33 -565 0 -565 0 6 28 c20 80 73 203 116
268 77 115 171 185 295 219 65 18 204 18 281 0z"/>
</g>
</svg>
