<?xml version="1.0" standalone="no"?>
<!DOCTYPE svg PUBLIC "-//W3C//DTD SVG 20010904//EN"
 "http://www.w3.org/TR/2001/REC-SVG-20010904/DTD/svg10.dtd">
<svg version="1.0" xmlns="http://www.w3.org/2000/svg"
 width="1920.000000pt" height="889.000000pt" viewBox="0 0 1920.000000 889.000000"
 preserveAspectRatio="xMidYMid meet">

<g transform="translate(0.000000,889.000000) scale(0.100000,-0.100000)"
fill="#000000" stroke="none">
<path d="M1155 6701 l-630 -117 -3 -3032 -2 -3032 660 0 660 0 0 3150 0 3150
-27 -1 c-16 -1 -311 -54 -658 -118z"/>
<path d="M3655 6241 l-640 -117 -5 -595 -5 -594 -322 -3 -323 -2 0 -540 0
-540 323 -2 322 -3 6 -965 c4 -531 10 -981 13 -1000 4 -19 14 -80 22 -135 80
-520 299 -866 662 -1049 145 -73 353 -130 572 -156 126 -16 908 -26 921 -13 7
7 8 239 3 674 l-7 664 -186 3 c-250 3 -318 13 -411 59 -134 68 -233 186 -271
324 -9 32 -14 252 -16 817 l-4 772 445 0 446 0 0 545 0 545 -445 0 -445 0 0
715 c0 393 -3 715 -7 714 -5 0 -296 -54 -648 -118z"/>
<path d="M10970 5189 c-572 -53 -1104 -303 -1510 -709 -383 -383 -618 -863
-691 -1410 -18 -137 -16 -449 5 -595 115 -816 619 -1507 1353 -1856 461 -220
973 -287 1479 -194 916 169 1657 864 1889 1769 49 190 66 316 72 531 20 690
-249 1334 -758 1819 l-113 107 -22 -23 c-46 -49 -770 -864 -777 -875 -5 -8 8
-26 35 -50 274 -240 427 -568 428 -918 1 -576 -431 -1080 -1009 -1176 -100
-17 -302 -14 -404 5 -607 115 -1038 681 -977 1281 46 454 343 835 788 1010
l107 42 96 584 c52 321 99 603 102 627 4 23 4 41 0 41 -5 -1 -46 -5 -93 -10z"/>
<path d="M14745 5059 c-352 -65 -643 -118 -647 -119 -5 0 -8 -994 -8 -2210 l0
-2210 650 0 650 0 3 1358 3 1357 22 83 c149 558 708 874 1247 705 285 -90 526
-318 625 -592 67 -182 63 -92 67 -1563 l4 -1338 660 0 660 0 -4 1378 c-4 1440
-3 1418 -47 1687 -44 277 -134 545 -252 757 -302 540 -879 811 -1672 785 -500
-16 -885 -176 -1213 -504 l-103 -102 -2 323 -3 323 -640 -118z"/>
<path d="M6665 5111 c-170 -32 -453 -84 -627 -117 l-318 -59 0 -2207 0 -2208
650 0 650 0 3 1368 c2 1260 4 1372 20 1431 77 283 251 504 501 637 167 89 297
120 501 118 150 -1 293 -24 394 -63 30 -11 56 -20 57 -18 1 1 20 41 42 90 120
258 320 527 585 790 77 76 138 139 136 141 -2 2 -49 20 -105 39 -199 69 -401
97 -710 97 -388 0 -659 -55 -916 -187 -152 -77 -266 -161 -395 -291 l-113
-112 0 305 0 305 -22 -1 c-13 0 -162 -26 -333 -58z"/>
</g>
</svg>
