<?xml version="1.0" standalone="no"?>
<!DOCTYPE svg PUBLIC "-//W3C//DTD SVG 20010904//EN"
 "http://www.w3.org/TR/2001/REC-SVG-20010904/DTD/svg10.dtd">
<svg version="1.0" xmlns="http://www.w3.org/2000/svg"
 width="1920.000000pt" height="387.000000pt" viewBox="0 0 1920.000000 387.000000"
 preserveAspectRatio="xMidYMid meet">

<g transform="translate(0.000000,387.000000) scale(0.100000,-0.100000)"
fill="#000000" stroke="none">
<path d="M8310 3130 l0 -739 -69 68 c-206 204 -465 293 -801 277 -270 -12
-489 -88 -692 -241 -245 -184 -414 -470 -485 -820 -28 -140 -25 -493 6 -635
63 -295 186 -528 377 -711 223 -214 498 -319 834 -320 317 0 538 84 748 285
l82 79 0 -152 0 -151 385 0 385 0 0 1900 0 1900 -385 0 -385 0 0 -740z m-436
-1100 c112 -28 190 -73 277 -160 57 -56 85 -94 112 -150 57 -119 71 -187 71
-335 0 -151 -20 -242 -82 -360 -46 -88 -163 -208 -247 -252 -112 -59 -195 -78
-335 -77 -113 0 -133 3 -210 30 -153 54 -271 154 -342 290 -93 178 -110 409
-43 605 68 203 231 355 437 409 101 26 260 26 362 0z"/>
<path d="M15430 1970 l0 -1900 385 0 385 0 0 453 0 454 148 100 c81 55 152
103 158 106 7 4 133 -200 340 -553 l328 -560 443 0 c374 0 443 2 443 14 0 8
-194 344 -431 746 -237 403 -432 738 -435 744 -2 6 149 112 336 236 l339 225
1 433 c0 303 -3 432 -11 432 -6 0 -379 -250 -830 -555 -451 -305 -822 -555
-824 -555 -3 0 -5 468 -5 1040 l0 1040 -385 0 -385 0 0 -1900z"/>
<path d="M18549 3661 c-88 -28 -154 -69 -218 -135 -212 -222 -183 -565 64
-751 203 -152 489 -127 663 59 261 280 140 721 -227 830 -73 22 -210 20 -282
-3z m280 -90 c110 -41 202 -137 247 -256 27 -72 25 -211 -4 -285 -47 -118
-149 -213 -270 -250 -147 -45 -291 -7 -405 107 -158 158 -162 414 -8 576 117
124 288 166 440 108z"/>
<path d="M18510 3181 l0 -261 60 0 59 0 3 98 c2 78 6 97 18 97 9 0 38 -41 69
-97 l53 -98 70 0 c38 0 67 3 65 8 -2 4 -28 49 -58 101 -38 67 -50 96 -40 99 7
2 28 18 47 34 60 53 68 148 16 210 -41 49 -82 61 -229 66 l-133 5 0 -262z
m252 132 c22 -20 24 -66 3 -87 -18 -17 -70 -29 -106 -24 -22 3 -24 8 -27 66
l-3 62 57 0 c39 0 63 -5 76 -17z"/>
<path d="M1286 2729 c-653 -69 -1132 -472 -1251 -1053 -79 -388 -8 -778 198
-1086 65 -97 230 -261 332 -328 239 -158 503 -239 820 -249 466 -16 860 124
1144 406 133 132 237 297 300 474 158 447 78 984 -198 1331 -291 366 -812 561
-1345 505z m360 -704 c111 -28 202 -81 284 -164 83 -84 126 -156 162 -271 20
-64 23 -95 22 -215 0 -123 -4 -150 -27 -220 -94 -283 -334 -455 -637 -455
-314 0 -565 192 -636 485 -27 108 -23 288 8 390 90 302 355 487 674 470 50 -3
117 -12 150 -20z"/>
<path d="M4752 2729 c-216 -28 -437 -134 -602 -288 -36 -34 -66 -61 -67 -61
-2 0 -3 65 -3 145 l0 145 -385 0 -385 0 0 -1295 0 -1295 385 0 385 0 0 755 c0
831 1 845 61 971 83 175 284 274 499 247 163 -21 285 -100 353 -231 68 -129
67 -112 67 -969 l0 -773 385 0 385 0 0 853 c0 557 -4 883 -11 942 -26 213
-113 435 -223 567 -184 222 -506 331 -844 287z"/>
<path d="M10690 2730 c-192 -27 -322 -66 -487 -146 -369 -178 -614 -505 -700
-930 -25 -125 -25 -433 0 -558 79 -395 298 -704 632 -896 225 -128 482 -191
788 -191 330 1 604 78 847 240 84 56 254 201 270 230 9 17 -20 48 -227 250
l-237 231 -65 -63 c-116 -112 -247 -185 -381 -213 -107 -23 -320 -15 -410 16
-194 65 -345 209 -415 394 l-25 66 974 0 c651 0 977 3 981 10 4 6 7 99 7 208
1 228 -14 337 -68 501 -144 436 -484 730 -963 832 -110 23 -411 34 -521 19z
m266 -641 c203 -28 366 -143 445 -314 15 -33 30 -70 34 -82 l6 -23 -575 0
-576 0 19 50 c77 201 254 341 469 369 95 12 93 12 178 0z"/>
<path d="M13800 2734 c-520 -65 -908 -320 -1113 -729 -112 -224 -162 -501
-137 -762 32 -349 163 -630 398 -855 257 -245 617 -379 1022 -379 339 0 597
85 860 280 77 57 221 196 259 250 l21 29 -227 203 c-126 111 -242 216 -260
232 l-32 30 -67 -72 c-156 -168 -333 -251 -539 -251 -293 0 -530 171 -615 445
-31 98 -38 264 -16 370 46 229 200 406 417 480 75 26 97 29 214 29 116 0 139
-3 210 -28 113 -39 217 -106 313 -204 73 -74 84 -82 99 -71 65 53 498 453 498
461 0 32 -216 239 -327 313 -231 155 -461 223 -768 230 -96 2 -191 1 -210 -1z"/>
</g>
</svg>
