<?xml version="1.0" standalone="no"?>
<!DOCTYPE svg PUBLIC "-//W3C//DTD SVG 20010904//EN"
 "http://www.w3.org/TR/2001/REC-SVG-20010904/DTD/svg10.dtd">
<svg version="1.0" xmlns="http://www.w3.org/2000/svg"
 width="1920.000000pt" height="316.000000pt" viewBox="0 0 1920.000000 316.000000"
 preserveAspectRatio="xMidYMid meet">

<g transform="translate(0.000000,316.000000) scale(0.100000,-0.100000)"
fill="#000000" stroke="none">
<path d="M190 3033 c0 -4 199 -666 442 -1470 l443 -1463 111 0 112 0 -44 143
c-24 78 -230 738 -457 1467 l-413 1325 -97 3 c-53 1 -97 -1 -97 -5z"/>
<path d="M2014 2968 c12 -40 218 -702 456 -1471 l434 -1397 103 0 c76 0 103 3
103 13 0 6 -204 667 -454 1467 l-453 1455 -106 3 -106 3 23 -73z"/>
<path d="M4730 1570 l0 -1470 105 0 105 0 2 1356 3 1356 919 -1356 920 -1356
128 0 c101 0 127 3 122 12 -5 7 -51 67 -104 133 -52 66 -502 722 -999 1458
l-904 1337 -149 0 -148 0 0 -1470z"/>
<path d="M6840 1819 l0 -1222 101 -221 c56 -122 103 -223 105 -225 2 -2 4 647
4 1442 l0 1447 -105 0 -105 0 0 -1221z"/>
<path d="M7830 1570 l0 -1471 633 4 c596 4 639 5 746 26 441 83 741 304 931
686 110 221 140 345 147 607 13 442 -73 784 -269 1070 -179 262 -434 433 -768
516 l-105 26 -657 3 -658 4 0 -1471z m1145 1285 c305 -15 625 -164 788 -367
148 -184 251 -414 291 -647 22 -128 22 -474 1 -597 -55 -311 -233 -613 -450
-763 -130 -91 -262 -141 -459 -178 -63 -12 -195 -16 -593 -20 l-513 -5 0 1296
0 1296 418 -5 c229 -3 462 -8 517 -10z"/>
<path d="M10960 1570 l0 -1470 105 0 105 0 0 1391 0 1390 608 -3 c683 -4 658
-2 827 -83 203 -97 328 -272 342 -480 10 -148 -38 -283 -139 -390 -73 -78
-142 -125 -244 -166 -88 -35 -235 -69 -304 -69 -25 0 -50 -4 -56 -8 -8 -5 129
-267 414 -795 l425 -787 104 0 c56 0 103 1 103 3 0 2 -173 327 -384 722 l-383
720 97 31 c117 39 162 61 258 127 195 134 311 349 312 575 0 142 -44 290 -118
398 -109 160 -277 271 -501 332 l-96 27 -737 3 -738 3 0 -1471z"/>
<path d="M13742 3031 c2 -4 244 -666 538 -1470 l535 -1461 107 0 107 0 -45
108 c-26 59 -272 720 -547 1470 l-501 1362 -99 0 c-54 0 -97 -4 -95 -9z"/>
<path d="M16840 1570 l0 -1470 105 0 105 0 0 1390 0 1390 569 0 c476 0 582 -3
652 -16 217 -41 393 -156 483 -316 46 -83 66 -163 66 -268 0 -96 -15 -160 -55
-241 -90 -185 -330 -323 -598 -345 -42 -4 -80 -10 -87 -14 -7 -4 5 -34 37 -91
27 -46 219 -400 428 -786 l379 -703 104 0 c79 0 103 3 99 13 -3 6 -176 332
-385 722 l-380 710 97 31 c170 54 283 124 394 244 117 126 177 281 177 458 0
356 -225 623 -615 729 l-100 28 -737 3 -738 3 0 -1471z"/>
<path d="M3437 1813 l-367 -1218 30 -219 c16 -120 31 -220 32 -222 3 -3 869
2857 868 2869 0 4 -44 7 -98 7 l-98 0 -367 -1217z"/>
<path d="M1951 2914 c-6 -22 -165 -551 -354 -1178 l-343 -1138 17 -132 c10
-72 23 -173 30 -224 6 -51 13 -91 15 -89 2 1 163 533 359 1181 l356 1178 -32
216 c-17 120 -33 219 -34 221 -2 1 -8 -14 -14 -35z"/>
</g>
</svg>
