<?xml version="1.0" standalone="no"?>
<!DOCTYPE svg PUBLIC "-//W3C//DTD SVG 20010904//EN"
 "http://www.w3.org/TR/2001/REC-SVG-20010904/DTD/svg10.dtd">
<svg version="1.0" xmlns="http://www.w3.org/2000/svg"
 width="1200.000000pt" height="549.000000pt" viewBox="0 0 1200.000000 549.000000"
 preserveAspectRatio="xMidYMid meet">

<g transform="translate(0.000000,549.000000) scale(0.100000,-0.100000)"
fill="#000000" stroke="none">
<path d="M7233 5483 l-33 -4 0 -222 0 -222 -158 158 -158 157 -56 -50 c-31
-28 -71 -69 -89 -91 l-32 -41 159 -159 159 -159 -222 0 c-260 0 -236 16 -231
-145 l3 -100 225 -3 224 -2 -159 -160 -159 -159 47 -55 c26 -30 66 -69 88 -87
l41 -32 159 159 159 159 0 -226 0 -227 63 -4 c34 -3 90 -3 125 0 l62 5 0 218
c0 121 3 219 7 219 4 0 76 -68 159 -151 130 -130 154 -150 170 -141 11 6 52
45 93 87 l74 76 -159 160 -159 159 221 0 222 0 6 31 c3 17 6 60 6 94 0 34 -3
77 -6 94 l-6 31 -219 0 c-121 0 -219 3 -219 8 0 4 68 75 150 157 83 82 150
155 150 162 0 16 -147 163 -163 163 -7 0 -80 -67 -162 -150 -82 -82 -153 -150
-157 -150 -5 0 -8 98 -8 219 l0 218 -46 7 c-48 6 -114 6 -171 -1z m229 -586
c32 -13 37 -21 47 -67 15 -68 14 -153 -2 -215 -12 -45 -17 -51 -53 -64 -55
-20 -209 -19 -256 1 -30 14 -39 24 -48 59 -16 57 -16 163 0 227 11 48 15 53
48 61 21 5 46 12 57 15 36 9 170 -2 207 -17z"/>
<path d="M2925 3514 c-122 -10 -290 -37 -407 -65 l-128 -31 0 -62 c0 -68 28
-190 59 -261 l19 -44 64 19 c264 79 590 96 765 42 125 -39 214 -116 252 -217
24 -63 44 -200 39 -270 -3 -47 -5 -50 -28 -47 -14 1 -133 5 -265 8 -263 7
-349 -2 -518 -51 -236 -68 -426 -218 -517 -409 -49 -103 -64 -184 -63 -336 1
-231 49 -356 188 -496 144 -144 301 -206 605 -235 231 -22 486 -1 845 67 l195
38 0 773 c0 483 -4 810 -11 870 -44 396 -249 613 -649 688 -84 16 -347 27
-445 19z m560 -1287 l100 -12 3 -372 c2 -351 1 -373 -16 -382 -66 -35 -493
-57 -619 -31 -122 25 -227 99 -272 192 -32 66 -46 183 -31 265 15 90 39 142
91 198 67 73 147 113 279 140 81 16 330 17 465 2z"/>
<path d="M5542 3510 c-212 -30 -404 -140 -526 -302 -39 -52 -52 -63 -57 -50
-3 9 -14 80 -24 157 -9 77 -22 143 -28 147 -32 20 -336 22 -367 3 -7 -4 -10
-626 -10 -1725 l0 -1719 38 -8 c48 -9 326 -9 375 0 l37 8 0 541 0 540 23 -6
c190 -53 497 -57 725 -10 494 102 810 456 887 994 19 135 19 388 0 532 -37
283 -133 504 -285 659 -153 156 -351 234 -614 244 -61 2 -139 0 -174 -5z m206
-404 c251 -67 388 -305 409 -711 11 -223 -24 -414 -108 -585 -92 -186 -236
-304 -434 -357 -56 -14 -106 -18 -255 -17 -182 0 -268 11 -353 46 l-28 11 3
556 c4 623 2 603 79 760 75 153 221 269 379 300 30 6 64 13 75 15 33 8 177 -4
233 -18z"/>
<path d="M9125 3513 c-374 -34 -676 -236 -835 -558 -52 -105 -87 -215 -117
-363 -26 -127 -26 -520 0 -646 104 -510 401 -793 922 -877 119 -20 463 -17
605 5 125 18 267 53 345 84 l50 20 -3 53 c-4 69 -37 209 -61 265 l-20 43 -88
-30 c-265 -89 -602 -109 -823 -48 -285 78 -441 284 -468 617 l-8 92 802 0 801
0 7 38 c12 77 6 377 -10 473 -82 478 -375 774 -824 829 -81 10 -189 11 -275 3z
m248 -368 c234 -49 394 -261 422 -557 l7 -78 -586 0 c-521 0 -586 2 -586 15 0
73 62 276 109 359 124 216 369 317 634 261z"/>
<path d="M10795 3472 l-40 -7 -3 -1174 c-1 -658 2 -1179 7 -1184 12 -12 251
-21 354 -12 l87 7 0 624 c0 644 5 761 41 892 55 205 184 355 354 411 83 27
225 45 312 38 l72 -5 8 66 c10 82 10 254 0 303 l-8 37 -77 7 c-91 8 -225 -7
-316 -36 -36 -11 -98 -42 -139 -69 -76 -50 -209 -182 -243 -238 -10 -18 -21
-32 -25 -32 -3 0 -9 44 -12 98 -7 113 -25 243 -37 262 -9 15 -265 24 -335 12z"/>
<path d="M146 3444 c-8 -20 -8 -292 0 -321 l6 -23 544 -2 544 -3 -619 -963
c-591 -918 -619 -965 -609 -993 l10 -29 918 0 c828 0 918 2 924 16 8 20 8 292
0 321 l-6 23 -583 2 -582 3 559 865 c308 476 588 911 624 966 59 93 64 104 53
128 l-12 26 -883 0 c-795 0 -882 -2 -888 -16z"/>
<path d="M6896 3429 c-3 -17 -6 -82 -6 -144 0 -62 3 -127 6 -144 l7 -31 148 0
149 0 0 -999 c0 -659 3 -1002 10 -1006 18 -11 252 -18 343 -10 l87 7 0 1179 0
1179 -369 0 -368 0 -7 -31z"/>
</g>
</svg>
